<svg xmlns="http://www.w3.org/2000/svg" xmlns:xlink="http://www.w3.org/1999/xlink" viewBox="0 0 20.612 20.667">
  <defs>
    <style>
      .cls-1 {
        fill: url(#linear-gradient);
      }
    </style>
    <linearGradient id="linear-gradient" x1="0.94" y1="1" x2="0.065" gradientUnits="objectBoundingBox">
      <stop offset="0" stop-color="#01e0c6"/>
      <stop offset="1" stop-color="#011270"/>
    </linearGradient>
  </defs>
  <path id="Union_12" data-name="Union 12" class="cls-1" d="M8.126,19.764c-.128-.146-.237-.292-.347-.438-.036-.055-.055-.091-.091-.146l-.164-.328c-.018-.055-.055-.128-.073-.182-.036-.109-.073-.237-.109-.365a.431.431,0,0,1-.036-.146l-.036-.638a2.012,2.012,0,0,1,.036-.328.357.357,0,0,0,.018-.128A3.59,3.59,0,0,0,3.694,13.4a.889.889,0,0,1-.219.018c-.073,0-.164.018-.255.018l-.638-.055a.431.431,0,0,1-.146-.036c-.109-.037-.237-.073-.365-.109-.055-.018-.128-.055-.182-.073A2.734,2.734,0,0,1,1.56,13a.644.644,0,0,1-.146-.091,1.923,1.923,0,0,1-.438-.347,3.05,3.05,0,1,1,4.3-4.323c.128.146.237.292.347.438a1.02,1.02,0,0,1,.091.146l.164.328c.018.055.055.128.073.182.036.109.073.237.109.365A.431.431,0,0,1,6.1,9.84l.055.638a2.012,2.012,0,0,1-.036.328.357.357,0,0,0-.018.128A3.59,3.59,0,0,0,9.732,14.6a.888.888,0,0,1,.219-.018c.073,0,.164-.018.255-.018l.638.055a.427.427,0,0,1,.146.037,2.78,2.78,0,0,1,.365.109.756.756,0,0,1,.182.073,2.734,2.734,0,0,1,.328.164.644.644,0,0,1,.146.091,2.04,2.04,0,0,1,.438.347,3.057,3.057,0,1,1-4.323,4.323Zm7.205-.11a3.065,3.065,0,0,1,1.644-5.181h-.039a.686.686,0,0,1,.152-.018,3.021,3.021,0,0,1,2.093.482l.013.008a3.066,3.066,0,0,1-1.707,5.61A3.012,3.012,0,0,1,15.332,19.654ZM11.921,15a.4.4,0,0,1,.146.091A1.011,1.011,0,0,0,11.921,15Zm-.493-.255c.055.018.128.055.182.073A1.954,1.954,0,0,1,11.428,14.747Zm-.415-.121a.148.148,0,0,1,.032.011ZM10.9,14.6a.315.315,0,0,1,.114.025C10.98,14.618,10.939,14.615,10.9,14.6Zm-.638-.055a3.62,3.62,0,0,1,.638.055ZM2.581,13.4l.638.055q-.082.007-.161.007A1.935,1.935,0,0,1,2.581,13.4Zm1.113.018a.889.889,0,0,1-.219.018C3.548,13.434,3.621,13.416,3.694,13.416Zm-1.259-.036a.429.429,0,0,1,.146.036A.431.431,0,0,1,2.435,13.379ZM15.386,12.5c-.128-.146-.237-.292-.347-.438a1.02,1.02,0,0,1-.091-.146l-.164-.328c-.018-.055-.055-.128-.073-.182-.036-.109-.073-.237-.109-.365a.427.427,0,0,1-.037-.146l-.036-.638a2.01,2.01,0,0,1,.036-.328.357.357,0,0,0,.018-.128,3.59,3.59,0,0,0-3.63-3.666.889.889,0,0,1-.219.018c-.073,0-.164.018-.255.018l-.638-.055A.429.429,0,0,1,9.7,6.083c-.109-.036-.237-.073-.365-.109-.055-.018-.128-.055-.182-.073a2.746,2.746,0,0,1-.328-.164.644.644,0,0,1-.146-.091A1.931,1.931,0,0,1,8.236,5.3,3.039,3.039,0,0,1,8.272.975a3.072,3.072,0,0,1,4.323,0c.128.146.237.292.347.438a1,1,0,0,1,.091.146l.164.328c.018.055.055.128.073.182.037.109.073.237.109.365a.43.43,0,0,1,.036.146l.015.174a2.318,2.318,0,0,1,.023.271l.017.194a1.994,1.994,0,0,1-.037.328.356.356,0,0,0-.018.128,3.59,3.59,0,0,0,3.575,3.666.889.889,0,0,1,.219-.018c.073,0,.164-.018.255-.018l.638.055a.431.431,0,0,1,.146.036,2.8,2.8,0,0,1,.365.109.763.763,0,0,1,.182.073,2.783,2.783,0,0,1,.328.164.647.647,0,0,1,.146.091,2.04,2.04,0,0,1,.438.347A3.057,3.057,0,1,1,15.386,12.5ZM9.95,13.32q-.121-.012-.242-.033a.328.328,0,0,1-.059-.011,3.064,3.064,0,0,1-1.577-.845c-.128-.146-.237-.292-.347-.438a1,1,0,0,1-.091-.146l-.164-.328c-.018-.055-.055-.128-.073-.182-.037-.109-.073-.237-.109-.365a.429.429,0,0,1-.036-.146l-.008-.133a2.369,2.369,0,0,1-.023-.412l-.005-.093a1.979,1.979,0,0,1,.035-.323V9.859a.356.356,0,0,0,.018-.128A3.617,3.617,0,0,0,3.621,6.065c-.073,0-.146.018-.219.018s-.164.018-.255.018l-.638-.055c-.055-.018-.109-.018-.146-.036C2.253,5.974,2.125,5.937,2,5.9c-.055-.018-.128-.055-.182-.073a2.746,2.746,0,0,1-.328-.164c-.055-.036-.091-.055-.146-.091A2.035,2.035,0,0,1,.9,5.226,3.057,3.057,0,0,1,5.226.9c.128.146.237.292.347.438a1.029,1.029,0,0,1,.091.146l.164.328c.018.055.055.128.073.182.036.109.073.237.109.365a.429.429,0,0,1,.036.146l.037.638a1.992,1.992,0,0,1-.037.328.357.357,0,0,0-.018.128A3.617,3.617,0,0,0,9.677,7.269.88.88,0,0,1,9.9,7.25c.073,0,.164-.018.255-.018l.638.055a.429.429,0,0,1,.146.036,1.619,1.619,0,0,1,.365.109c.055.018.128.055.183.073a2.771,2.771,0,0,1,.328.164.635.635,0,0,1,.146.091,2.035,2.035,0,0,1,.438.347,3.055,3.055,0,0,1,0,4.323,3.009,3.009,0,0,1-1.741.875c.064,0,.127-.017.19-.017a.809.809,0,0,1-.2.018,3.042,3.042,0,0,1-.386.027l.108.009A3.793,3.793,0,0,1,9.95,13.32Zm-.243-.033-.035-.007ZM1.888,13.2a1.258,1.258,0,0,1,.182.073C2.016,13.252,1.943,13.215,1.888,13.2Zm-.474-.274a1.034,1.034,0,0,0,.146.091A1.034,1.034,0,0,1,1.414,12.923Zm4.779-2.431-.054-.634a2.29,2.29,0,0,1,.054.634v0a2.01,2.01,0,0,1-.036.328A2.85,2.85,0,0,0,6.192,10.492Zm7.139-.067a.543.543,0,0,0-.006-.056l-.036-.638a2.369,2.369,0,0,1,.043.694,1.2,1.2,0,0,1-.024.273C13.317,10.607,13.326,10.516,13.331,10.425ZM6.1,9.695a.431.431,0,0,1,.036.146A.431.431,0,0,0,6.1,9.695Zm7.15-.109a.343.343,0,0,1,.037.146A.429.429,0,0,0,13.252,9.585ZM5.919,9.147a.763.763,0,0,1,.073.182C5.974,9.275,5.938,9.2,5.919,9.147Zm7.15-.128a.766.766,0,0,1,.073.182A1.876,1.876,0,0,1,13.07,9.02ZM5.664,8.673a.641.641,0,0,1,.091.146A.635.635,0,0,1,5.664,8.673ZM12.8,8.545a1.705,1.705,0,0,1,.091.146C12.851,8.637,12.833,8.6,12.8,8.545Zm6.4-.821a1.032,1.032,0,0,1,.146.091A.4.4,0,0,1,19.2,7.725ZM11.848,7.67a.4.4,0,0,1,.146.091C11.939,7.725,11.9,7.706,11.848,7.67Zm6.84-.182c.055.018.128.055.183.073A1.9,1.9,0,0,1,18.688,7.487Zm-7.333-.073c.055.018.128.055.182.073A1.835,1.835,0,0,1,11.355,7.414Zm6.822-.073a.429.429,0,0,1,.146.036A.563.563,0,0,0,18.177,7.342Zm-.638-.055a3.94,3.94,0,0,1,.638.055Zm-6.712-.018a.343.343,0,0,1,.146.036A.429.429,0,0,0,10.826,7.269Zm-.638-.055a3.606,3.606,0,0,1,.638.055ZM9.841,6.138l.638.055A2.593,2.593,0,0,1,9.841,6.138Zm1.131.018a.888.888,0,0,1-.219.018A.889.889,0,0,1,10.972,6.156ZM9.7,6.1a.557.557,0,0,0,.146.037A.425.425,0,0,1,9.7,6.1ZM2.508,6.065l.638.055A2.515,2.515,0,0,1,2.508,6.065Zm1.113.018c-.073,0-.146.018-.219.018A.89.89,0,0,1,3.621,6.083ZM2.362,6.028a.43.43,0,0,0,.146.036A.43.43,0,0,1,2.362,6.028Zm6.786-.109c.055.018.128.055.182.073A.759.759,0,0,1,9.148,5.919ZM1.815,5.846c.055.018.128.055.182.073A.545.545,0,0,1,1.815,5.846Zm6.858-.182a.637.637,0,0,1,.146.091A1.029,1.029,0,0,1,8.674,5.663ZM1.341,5.59a1.713,1.713,0,0,1,.146.091A1,1,0,0,1,1.341,5.59ZM6.107,3.307c0,.056-.014.111-.023.167Q6.1,3.391,6.107,3.307Zm0-.161-.036-.638a2.37,2.37,0,0,1,.041.8A.663.663,0,0,0,6.1,3.146Zm-.055-.784c.018.036.018.091.037.146A.431.431,0,0,1,6.047,2.362Zm-.2-.547A.548.548,0,0,1,5.919,2C5.9,1.942,5.865,1.869,5.846,1.815ZM5.591,1.34c.036.055.055.091.091.146A1.655,1.655,0,0,1,5.591,1.34Z" transform="translate(0 0)"/>
</svg>
